[Header]
FileType HTR
DataType HTRS
FileVersion 1
NumSegments 64
NumFrames 3
DataFrameRate 24
EulerRotationOrder ZYX
CalibrationUnits mm
RotationUnits Degrees
GlobalAxisofGravity Y
BoneLengthAxis Y
ScaleFactor 1.0
[SegmentNames&Hierarchy]
Hips	GLOBAL
Spine	Hips
Spine1	Spine
Spine2	Spine1
Neck	Spine2
Head	Neck
LeftEye	Head
RightEye	Head
LeftShoulder	Spine2
LeftArm	LeftShoulder
LeftForeArm	LeftArm
LeftHand	LeftForeArm
LeftHandThumb1	LeftHand
LeftHandThumb2	LeftHandThumb1
LeftHandThumb3	LeftHandThumb2
LeftHandThumb4	LeftHandThumb3
LeftHandIndex1	LeftHand
LeftHandIndex2	LeftHandIndex1
LeftHandIndex3	LeftHandIndex2
LeftHandIndex4	LeftHandIndex3
LeftHandMiddle1	LeftHand
LeftHandMiddle2	LeftHandMiddle1
LeftHandMiddle3	LeftHandMiddle2
LeftHandMiddle4	LeftHandMiddle3
LeftHandRing1	LeftHand
LeftHandRing2	LeftHandRing1
LeftHandRing3	LeftHandRing2
LeftHandRing4	LeftHandRing3
LeftHandPinky1	LeftHand
LeftHandPinky2	LeftHandPinky1
LeftHandPinky3	LeftHandPinky2
LeftHandPinky4	LeftHandPinky3
RightShoulder	Spine2
RightArm	RightShoulder
RightForeArm	RightArm
RightHand	RightForeArm
RightHandPinky1	RightHand
RightHandPinky2	RightHandPinky1
RightHandPinky3	RightHandPinky2
RightHandPinky4	RightHandPinky3
RightHandRing1	RightHand
RightHandRing2	RightHandRing1
RightHandRing3	RightHandRing2
RightHandRing4	RightHandRing3
RightHandMiddle1	RightHand
RightHandMiddle2	RightHandMiddle1
RightHandMiddle3	RightHandMiddle2
RightHandMiddle4	RightHandMiddle3
RightHandIndex1	RightHand
RightHandIndex2	RightHandIndex1
RightHandIndex3	RightHandIndex2
RightHandIndex4	RightHandIndex3
RightHandThumb1	RightHand
RightHandThumb2	RightHandThumb1
RightHandThumb3	RightHandThumb2
RightHandThumb4	RightHandThumb3
LeftUpLeg	Hips
LeftLeg	LeftUpLeg
LeftFoot	LeftLeg
LeftToeBase	LeftFoot
RightUpLeg	Hips
RightLeg	RightUpLeg
RightFoot	RightLeg
RightToeBase	RightFoot
[BasePosition]
Hips	0	0	0	0	0	0	1
Spine	0	0	0	0	0	0	1
Spine1	0	0	0	0	0	0	1
Spine2	0	0	0	0	0	0	1
Neck	0	0	0	0	0	0	1
Head	0	0	0	0	0	0	1
LeftEye	0	0	0	0	0	0	1
RightEye	0	0	0	0	0	0	1
LeftShoulder	0	0	0	0	0	0	1
LeftArm	0	0	0	0	0	0	1
LeftForeArm	0	0	0	0	0	0	1
LeftHand	0	0	0	0	0	0	1
LeftHandThumb1	0	0	0	0	0	0	1
LeftHandThumb2	0	0	0	0	0	0	1
LeftHandThumb3	0	0	0	0	0	0	1
LeftHandThumb4	0	0	0	0	0	0	1
LeftHandIndex1	0	0	0	0	0	0	1
LeftHandIndex2	0	0	0	0	0	0	1
LeftHandIndex3	0	0	0	0	0	0	1
LeftHandIndex4	0	0	0	0	0	0	1
LeftHandMiddle1	0	0	0	0	0	0	1
LeftHandMiddle2	0	0	0	0	0	0	1
LeftHandMiddle3	0	0	0	0	0	0	1
LeftHandMiddle4	0	0	0	0	0	0	1
LeftHandRing1	0	0	0	0	0	0	1
LeftHandRing2	0	0	0	0	0	0	1
LeftHandRing3	0	0	0	0	0	0	1
LeftHandRing4	0	0	0	0	0	0	1
LeftHandPinky1	0	0	0	0	0	0	1
LeftHandPinky2	0	0	0	0	0	0	1
LeftHandPinky3	0	0	0	0	0	0	1
LeftHandPinky4	0	0	0	0	0	0	1
RightShoulder	0	0	0	0	0	0	1
RightArm	0	0	0	0	0	0	1
RightForeArm	0	0	0	0	0	0	1
RightHand	0	0	0	0	0	0	1
RightHandPinky1	0	0	0	0	0	0	1
RightHandPinky2	0	0	0	0	0	0	1
RightHandPinky3	0	0	0	0	0	0	1
RightHandPinky4	0	0	0	0	0	0	1
RightHandRing1	0	0	0	0	0	0	1
RightHandRing2	0	0	0	0	0	0	1
RightHandRing3	0	0	0	0	0	0	1
RightHandRing4	0	0	0	0	0	0	1
RightHandMiddle1	0	0	0	0	0	0	1
RightHandMiddle2	0	0	0	0	0	0	1
RightHandMiddle3	0	0	0	0	0	0	1
RightHandMiddle4	0	0	0	0	0	0	1
RightHandIndex1	0	0	0	0	0	0	1
RightHandIndex2	0	0	0	0	0	0	1
RightHandIndex3	0	0	0	0	0	0	1
RightHandIndex4	0	0	0	0	0	0	1
RightHandThumb1	0	0	0	0	0	0	1
RightHandThumb2	0	0	0	0	0	0	1
RightHandThumb3	0	0	0	0	0	0	1
RightHandThumb4	0	0	0	0	0	0	1
LeftUpLeg	0	0	0	0	0	0	1
LeftLeg	0	0	0	0	0	0	1
LeftFoot	0	0	0	0	0	0	1
LeftToeBase	0	0	0	0	0	0	1
RightUpLeg	0	0	0	0	0	0	1
RightLeg	0	0	0	0	0	0	1
RightFoot	0	0	0	0	0	0	1
RightToeBase	0	0	0	0	0	0	1
[Hips]
24	-1665.522339	973.157959	5.408127785	9.307267189	-62.75229263	-4.561270714	1.0
25	-1735.956909	993.5484619	7.005280495	8.298852921	-64.38198853	-3.857553959	1.0
26	-1805.507935	1006.175781	8.907252312	5.976064205	-66.17047882	-1.371174693	1.0
[Spine]
24	0	101.8159943	1.315000057	5.879868507	5.247923851	2.838950157	1.0
25	0	101.8159943	1.315000057	5.931785583	6.280193329	1.893344998	1.0
26	0	101.8159943	1.315000057	5.902028084	7.369274616	0.4427898824	1.0
[Spine1]
24	0	100.8349991	-10.00800037	4.198199272	4.277170658	0.9191619754	1.0
25	0	100.8349991	-10.00800037	4.199122429	4.524451733	0.5346623063	1.0
26	0	100.8349991	-10.00800037	4.187674999	4.7677145	-0.05873571709	1.0
[Spine2]
24	0	91	-13.73399925	4.177816868	4.289622784	0.9413406253	1.0
25	0	91	-13.73399925	4.180871964	4.541437149	0.5532711744	1.0
26	0	91	-13.73399925	4.162639618	4.792504787	-0.0390830189	1.0
[Neck]
24	0	166.7169952	-25.16200066	4.148841381	5.500083923	2.020841599	1.0
25	0	166.7169952	-25.16200066	4.656890392	5.44503212	2.266178608	1.0
26	0	166.7169952	-25.16200066	4.956512928	5.420525551	2.367136478	1.0
[Head]
24	0	96.17900085	16.84999847	-13.05888844	33.4271965	-14.63255215	1.0
25	0	96.17900085	16.84999847	-11.87456417	33.73045731	-13.34392166	1.0
26	0	96.17900085	16.84999847	-11.11158085	33.89738083	-12.3486948	1.0
[LeftEye]
24	30.6760006	64.09500122	92.83599854	0	0	0	1.0
25	30.6760006	64.09500122	92.83599854	0	0	0	1.0
26	30.6760006	64.09500122	92.83599854	0	0	0	1.0
[RightEye]
24	-30.6760006	64.09500122	92.83499908	0	0	0	1.0
25	-30.6760006	64.09500122	92.83499908	0	0	0	1.0
26	-30.6760006	64.09500122	92.83499908	0	0	0	1.0
[LeftShoulder]
24	45.70400238	109.4599991	-26.28000069	0.5611971021	-1.568856359	-8.177365303	1.0
25	45.70400238	109.4599991	-26.28000069	0.7780058384	0.351054728	-7.760565758	1.0
26	45.70400238	109.4599991	-26.28000069	1.008494616	2.197286844	-7.514517784	1.0
[LeftArm]
24	105.923996	-5.24600029	-22.32099915	18.05666733	-13.8006258	-71.00714111	1.0
25	105.923996	-5.24600029	-22.32099915	17.96042061	-11.52100945	-70.17606354	1.0
26	105.923996	-5.24600029	-22.32099915	17.768013	-9.122005463	-68.93611145	1.0
[LeftForeArm]
24	278.414978	-0.0009999999311	0	-6.456789379e-06	-34.40070724	-0.0002101830032	1.0
25	278.414978	-0.0009999999311	0	2.032896731e-07	-32.65849686	-0.0001919684	1.0
26	278.414978	-0.0009999999311	0	-4.66472784e-07	-29.22143555	-0.000211617953	1.0
[LeftHand]
24	283.2879944	0	0	8.508983612	-25.35210228	5.805614471	1.0
25	283.2879944	0	0	6.696519375	-20.23982811	5.453330994	1.0
26	283.2879944	0	0	4.552813053	-14.46042824	4.857762814	1.0
[LeftHandThumb1]
24	24.6609993	-15.75	26.8239994	30.58115005	-20.32058144	11.29641056	1.0
25	24.6609993	-15.75	26.8239994	30.58115005	-20.32058144	11.29641056	1.0
26	24.6609993	-15.75	26.8239994	30.58115005	-20.32058144	11.29641056	1.0
[LeftHandThumb2]
24	32.29800034	-18.64699936	18.64699936	9.404159546	20.47451401	-1.200816154	1.0
25	32.29800034	-18.64699936	18.64699936	8.964408875	22.40534973	-1.106431484	1.0
26	32.29800034	-18.64699936	18.64699936	9.137364388	22.860569	-1.032787919	1.0
[LeftHandThumb3]
24	26.52600098	-15.31499958	15.31499958	-15.00886822	8.346196175	9.938350677	1.0
25	26.52600098	-15.31499958	15.31499958	-14.99797821	8.371855736	9.930963516	1.0
26	26.52600098	-15.31499958	15.31499958	-14.99386978	8.381425858	9.92784977	1.0
[LeftHandThumb4]
24	19.54599953	-11.28499985	11.28499985	0	0	0	1.0
25	19.54599953	-11.28499985	11.28499985	0	0	0	1.0
26	19.54599953	-11.28499985	11.28499985	0	0	0	1.0
[LeftHandIndex1]
24	91.09299469	-5.170999527	22.60099792	-0.9627568722	-6.334248543	-19.79191971	1.0
25	91.09299469	-5.170999527	22.60099792	-0.9454345703	-6.192629337	-19.74910736	1.0
26	91.09299469	-5.170999527	22.60099792	-0.925240159	-6.020166397	-19.70661354	1.0
[LeftHandIndex2]
24	36.76399994	0	0	-0.7192918062	2.807759285	-28.73277092	1.0
25	36.76399994	0	0	-0.7236659527	2.815733433	-28.82209778	1.0
26	36.76399994	0	0	-0.7272845507	2.82232666	-28.89583397	1.0
[LeftHandIndex3]
24	28.83100128	0	0	-0.2967630327	1.838447571	-18.33797646	1.0
25	28.83100128	0	0	-0.2996629477	1.847162247	-18.42811584	1.0
26	28.83100128	0	0	-0.302071631	1.854346514	-18.50256157	1.0
[LeftHandIndex4]
24	23.92700005	0	0	0	0	0	1.0
25	23.92700005	0	0	0	0	0	1.0
26	23.92700005	0	0	0	0	0	1.0
[LeftHandMiddle1]
24	95.33399963	0	0	-2.367209435	2.065046072	-35.20440292	1.0
25	95.33399963	0	0	-2.371086836	2.050412655	-35.24668884	1.0
26	95.33399963	0	0	-2.349566936	2.085998297	-35.01323318	1.0
[LeftHandMiddle2]
24	36.98199844	0	0	-0.5637950301	2.50364852	-25.37779808	1.0
25	36.98199844	0	0	-0.5726377964	2.522184849	-25.5795002	1.0
26	36.98199844	0	0	-0.5765985847	2.530422688	-25.66919708	1.0
[LeftHandMiddle3]
24	29.50900078	0	0	-0.3948990107	2.111418724	-21.1847477	1.0
25	29.50900078	0	0	-0.4024360478	2.130759716	-21.38856697	1.0
26	29.50900078	0	0	-0.4058146179	2.139375687	-21.47924042	1.0
[LeftHandMiddle4]
24	28.3390007	0	0	0	0	0	1.0
25	28.3390007	0	0	0	0	0	1.0
26	28.3390007	0	0	0	0	0	1.0
[LeftHandRing1]
24	91.04499817	-0.4390000105	-18.65100098	-2.036319971	3.850356102	-31.50851059	1.0
25	91.04499817	-0.4390000105	-18.65100098	-2.081213236	3.791052103	-32.01403046	1.0
26	91.04499817	-0.4390000105	-18.65100098	-2.094948053	3.785855055	-32.16822433	1.0
[LeftHandRing2]
24	31.54000092	0	0	-0.8706319332	3.067341566	-31.68503571	1.0
25	31.54000092	0	0	-0.8770336509	3.077698231	-31.80478859	1.0
26	31.54000092	0	0	-0.8769776821	3.077605724	-31.80373573	1.0
[LeftHandRing3]
24	29.37700081	0	0	-0.9679582119	3.219515085	-33.46022415	1.0
25	29.37700081	0	0	-0.9748016	3.229804754	-33.58179855	1.0
26	29.37700081	0	0	-0.9747515321	3.229716063	-33.5807724	1.0
[LeftHandRing4]
24	26.47500038	0	0	0	0	0	1.0
25	26.47500038	0	0	0	0	0	1.0
26	26.47500038	0	0	0	0	0	1.0
[LeftHandPinky1]
24	80.77799988	-4.887000084	-38.06099701	-1.84732461	4.12712574	-29.16281319	1.0
25	80.77799988	-4.887000084	-38.06099701	-1.810426235	4.368691444	-28.72914886	1.0
26	80.77799988	-4.887000084	-38.06099701	-1.777748942	4.465475559	-28.34558296	1.0
[LeftHandPinky2]
24	36	0	0	-0.4592648745	2.270382643	-22.86812782	1.0
25	36	0	0	-0.4589296877	2.269615889	-22.85990143	1.0
26	36	0	0	-0.4588956535	2.269577742	-22.8594265	1.0
[LeftHandPinky3]
24	21.14200211	0	0	-0.5241602063	2.418421984	-24.45492935	1.0
25	21.14200211	0	0	-0.5254832506	2.42133522	-24.48641205	1.0
26	21.14200211	0	0	-0.524582386	2.419320345	-24.46466064	1.0
[LeftHandPinky4]
24	19.75699997	0	0	0	0	0	1.0
25	19.75699997	0	0	0	0	0	1.0
26	19.75699997	0	0	0	0	0	1.0
[RightShoulder]
24	-45.70000076	109.4620056	-26.28000069	0.1727493703	5.379946709	10.11197472	1.0
25	-45.70000076	109.4620056	-26.28000069	-0.6910256743	6.259814739	9.844388962	1.0
26	-45.70000076	109.4620056	-26.28000069	-1.554424763	7.006825447	9.518131256	1.0
[RightArm]
24	-105.9280014	-5.248000145	-22.32099915	27.54515648	9.810936928	60.47318268	1.0
25	-105.9280014	-5.248000145	-22.32099915	27.6207943	13.62851906	60.31817245	1.0
26	-105.9280014	-5.248000145	-22.32099915	26.83447456	16.89646339	60.02413177	1.0
[RightForeArm]
24	-278.414978	0	0	5.512898042e-06	8.412007332	5.724858056e-06	1.0
25	-278.414978	0	0	2.567764113e-06	10.11167145	1.676694046e-05	1.0
26	-278.414978	0	0	5.054306257e-06	12.60196018	2.83702575e-05	1.0
[RightHand]
24	-283.2879944	0	0.0009999999311	2.58056736	-3.681632996	-15.47382927	1.0
25	-283.2879944	0	0.0009999999311	6.272837639	-3.446782827	-19.291399	1.0
26	-283.2879944	0	0.0009999999311	6.657669544	-2.354956627	-21.21047592	1.0
[RightHandPinky1]
24	-80.76699829	-4.885000229	-38.06000137	-2.296365976	-4.704675198	37.20046616	1.0
25	-80.76699829	-4.885000229	-38.06000137	-2.268340111	-4.92662859	36.77812958	1.0
26	-80.76699829	-4.885000229	-38.06000137	-2.194121838	-4.702302933	35.9880867	1.0
[RightHandPinky2]
24	-36	0	0.0009999999311	-0.3942942917	-1.871490359	23.81230736	1.0
25	-36	0	0.0009999999311	-0.3994881213	-1.883228898	23.97095108	1.0
26	-36	0	0.0009999999311	-0.4043203592	-1.894058228	24.11748505	1.0
[RightHandPinky3]
24	-21.14200211	0	0	-0.1720018089	-1.251594782	15.64914894	1.0
25	-21.14200211	0	0	-0.1756098121	-1.264410138	15.81365776	1.0
26	-21.14200211	0	0	-0.1790083051	-1.27632606	15.96669579	1.0
[RightHandPinky4]
24	-19.75699997	0	0	0	0	0	1.0
25	-19.75699997	0	0	0	0	0	1.0
26	-19.75699997	0	0	0	0	0	1.0
[RightHandRing1]
24	-91.03599548	-0.4390000105	-18.65100098	-2.141310692	-7.085896969	35.47660065	1.0
25	-91.03599548	-0.4390000105	-18.65100098	-2.072182894	-7.04901123	34.60738373	1.0
26	-91.03599548	-0.4390000105	-18.65100098	-1.940167069	-6.878500938	32.92234039	1.0
[RightHandRing2]
24	-31.54000092	0	0	-0.3717675507	-1.819575191	23.09321213	1.0
25	-31.54000092	0	0	-0.3744302392	-1.825805306	23.17697716	1.0
26	-31.54000092	0	0	-0.3774862587	-1.832919121	23.27267647	1.0
[RightHandRing3]
24	-29.37700081	0	0	-0.2669236362	-1.550920844	19.52914429	1.0
25	-29.37700081	0	0	-0.2692140639	-1.557371855	19.61375999	1.0
26	-29.37700081	0	0	-0.2718641758	-1.564794183	19.71113014	1.0
[RightHandRing4]
24	-26.47500038	0	0	0	0	0	1.0
25	-26.47500038	0	0	0	0	0	1.0
26	-26.47500038	0	0	0	0	0	1.0
[RightHandMiddle1]
24	-95.32500458	0	0	-1.983648181	-4.116361618	33.45021057	1.0
25	-95.32500458	0	0	-1.899890065	-3.627899647	32.38077927	1.0
26	-95.32500458	0	0	-1.768753529	-2.842731237	30.67188835	1.0
[RightHandMiddle2]
24	-36.98199844	0	0	-0.2429917902	-1.481754541	18.6248951	1.0
25	-36.98199844	0	0	-0.2428891808	-1.48144865	18.62092972	1.0
26	-36.98199844	0	0	-0.2417206615	-1.477979422	18.5757122	1.0
[RightHandMiddle3]
24	-29.50900078	0	0	-0.0879054442	-0.9009457827	11.17017937	1.0
25	-29.50900078	0	0	-0.08784394711	-0.9006416798	11.16632652	1.0
26	-29.50900078	0	0	-0.08714038134	-0.8970602155	11.1212492	1.0
[RightHandMiddle4]
24	-28.3390007	0	0.0009999999311	0	0	0	1.0
25	-28.3390007	0	0.0009999999311	0	0	0	1.0
26	-28.3390007	0	0.0009999999311	0	0	0	1.0
[RightHandIndex1]
24	-91.08300018	-5.167999744	22.60099792	-1.415923238	-0.1393981427	28.97498703	1.0
25	-91.08300018	-5.167999744	22.60099792	-1.379122138	0.7358415723	27.13134575	1.0
26	-91.08300018	-5.167999744	22.60099792	-1.279144287	1.919731498	24.30705833	1.0
[RightHandIndex2]
24	-36.76399994	0	0	-0.1032547802	-0.9734242558	12.10956383	1.0
25	-36.76399994	0	0	-0.1029164642	-0.9718481898	12.08963776	1.0
26	-36.76399994	0	0	-0.1022007242	-0.9685100913	12.04747105	1.0
[RightHandIndex3]
24	-28.83100128	0	0	-0.1074173898	-0.9926211238	12.35216236	1.0
25	-28.83100128	0	0	-0.1070685759	-0.991040051	12.3321619	1.0
26	-28.83100128	0	0	-0.1063385308	-0.98768574	12.28975773	1.0
[RightHandIndex4]
24	-23.92700005	0	0	0	0	0	1.0
25	-23.92700005	0	0	0	0	0	1.0
26	-23.92700005	0	0	0	0	0	1.0
[RightHandThumb1]
24	-24.64799881	-15.72700024	26.82600021	-0.1902875453	0.8218618631	0.3671384752	1.0
25	-24.64799881	-15.72700024	26.82600021	-0.1902875453	0.8218618631	0.3671384752	1.0
26	-24.64799881	-15.72700024	26.82600021	-0.1902875453	0.8218618631	0.3671384752	1.0
[RightHandThumb2]
24	-32.29800034	-18.64699936	18.64699936	17.94234848	-3.985683918	-18.09397507	1.0
25	-32.29800034	-18.64699936	18.64699936	18.00967407	-4.555586815	-18.88949203	1.0
26	-32.29800034	-18.64699936	18.64699936	17.07000732	-5.09705162	-19.83495522	1.0
[RightHandThumb3]
24	-26.52600098	-15.31399918	15.31399918	-1.518623352	11.07610893	-25.02543831	1.0
25	-26.52600098	-15.31399918	15.31399918	-0.9955136776	9.824103355	-24.75688744	1.0
26	-26.52600098	-15.31399918	15.31399918	-0.00129359588	7.497717857	-24.17389297	1.0
[RightHandThumb4]
24	-19.54599953	-11.28499985	11.28499985	0	0	0	1.0
25	-19.54599953	-11.28499985	11.28499985	0	0	0	1.0
26	-19.54599953	-11.28499985	11.28499985	0	0	0	1.0
[LeftUpLeg]
24	82.07800293	-67.51699829	-15.99599934	-24.71005249	-0.9774857163	13.96859264	1.0
25	82.07800293	-67.51699829	-15.99599934	-30.27069855	0.373226285	8.528118134	1.0
26	82.07800293	-67.51699829	-15.99599934	-34.301754	0.8593997955	2.953473568	1.0
[LeftLeg]
24	0	-443.7049866	2.845999956	71.61937714	-2.86914897	-9.422730446	1.0
25	0	-443.7049866	2.845999956	66.78690338	-2.52920866	-6.143826485	1.0
26	0	-443.7049866	2.845999956	55.93053818	-1.879593611	-2.690614939	1.0
[LeftFoot]
24	0	-444.2789917	-29.8219986	4.975538731	-0.5762767792	-2.040889502	1.0
25	0	-444.2789917	-29.8219986	0.7856473327	0.06711894274	-3.004803181	1.0
26	0	-444.2789917	-29.8219986	-2.921857595	-0.05821577832	-4.022271156	1.0
[LeftToeBase]
24	0	-87.28699493	107.1060028	-9.859544754	2.634880912e-05	-1.932375199e-05	1.0
25	0	-87.28699493	107.1060028	-8.750151634	-4.615629678e-06	-2.722163572e-06	1.0
26	0	-87.28699493	107.1060028	-7.573409557	4.193013592e-05	-1.151545257e-05	1.0
[RightUpLeg]
24	-82.07800293	-67.51699829	-15.99599934	-32.07181168	-7.484134674	4.372982502	1.0
25	-82.07800293	-67.51699829	-15.99599934	-24.01208687	-6.728574753	5.226784706	1.0
26	-82.07800293	-67.51699829	-15.99599934	-16.60593414	-6.352273941	5.205087185	1.0
[RightLeg]
24	0	-443.7049866	2.861999989	38.79593277	1.089473248	1.203712344	1.0
25	0	-443.7049866	2.861999989	32.40505981	1.30822289	1.174662232	1.0
26	0	-443.7049866	2.861999989	26.34456825	1.865711331	1.277212262	1.0
[RightFoot]
24	0	-444.2770081	-29.83799934	-12.15630054	-0.6412943006	-2.065664053	1.0
25	0	-444.2770081	-29.83799934	-13.46722889	-0.7568702698	-3.562934399	1.0
26	0	-444.2770081	-29.83799934	-14.7173605	-0.6957053542	-4.94802618	1.0
[RightToeBase]
24	0	-87.28699493	107.1060028	-8.739782333	-2.158294774e-05	2.375768418e-06	1.0
25	0	-87.28699493	107.1060028	-8.482230186	-2.362071245e-05	1.573531279e-07	1.0
26	0	-87.28699493	107.1060028	-8.0809412	2.29579382e-05	1.356494636e-06	1.0
[EndOfFile]
